HIERARCHY
ROOT Hips
{
	OFFSET 0.000000 0.000000 0.000000
	CHANNELS 6 Xposition Yposition Zposition Xrotation Yrotation Zrotation
	JOINT LeftUpLeg_virtual
	{
		OFFSET 0.000000 0.000000 0.000000
		CHANNELS 3 Xrotation Yrotation Zrotation
		JOINT LeftUpLeg
		{
			OFFSET 10.205400 -3.823500 0.155100
			CHANNELS 3 Xrotation Yrotation Zrotation
			JOINT LeftLeg
			{
				OFFSET 0.708757 -12.982077 0.567790
				CHANNELS 3 Xrotation Yrotation Zrotation
				JOINT LeftFoot
				{
					OFFSET -0.708756 -10.717838 -2.184338
					CHANNELS 3 Xrotation Yrotation Zrotation
					JOINT LeftToeBase
					{
						OFFSET 0.108149 -7.191104 7.560241
						CHANNELS 3 Xrotation Yrotation Zrotation
						JOINT LeftToe_End
						{
							OFFSET 0.070230 0.081724 4.490308
							CHANNELS 3 Xrotation Yrotation Zrotation
							End Site
							{
								OFFSET 0 0 0
							}
						}
					}
				}
			}
		}
	}
	JOINT RightUpLeg_virtual
	{
		OFFSET 0.000000 0.000000 0.000000
		CHANNELS 3 Xrotation Yrotation Zrotation
		JOINT RightUpLeg
		{
			OFFSET -10.205400 -3.823500 0.005500
			CHANNELS 3 Xrotation Yrotation Zrotation
			JOINT RightLeg
			{
				OFFSET -0.708756 -12.982134 0.610632
				CHANNELS 3 Xrotation Yrotation Zrotation
				JOINT RightFoot
				{
					OFFSET 0.708754 -10.717769 -1.945823
					CHANNELS 3 Xrotation Yrotation Zrotation
					JOINT RightToeBase
					{
						OFFSET -0.108140 -7.191069 7.372968
						CHANNELS 3 Xrotation Yrotation Zrotation
						JOINT RightToe_End
						{
							OFFSET -0.070227 0.081735 4.479403
							CHANNELS 3 Xrotation Yrotation Zrotation
							End Site
							{
								OFFSET 0 0 0
							}
						}
					}
				}
			}
		}
	}
	JOINT Spine_virtual
	{
		OFFSET 0.000000 0.000000 0.000000
		CHANNELS 3 Xrotation Yrotation Zrotation
		JOINT Spine
		{
			OFFSET 0.000000 6.876099 0.125700
			CHANNELS 3 Xrotation Yrotation Zrotation
			JOINT Spine1
			{
				OFFSET 0.000000 5.730043 0.104720
				CHANNELS 3 Xrotation Yrotation Zrotation
				JOINT Spine1_split
				{
					OFFSET 0.000000 5.730043 0.104720
					CHANNELS 3 Xrotation Yrotation Zrotation
					JOINT Spine2
					{
						OFFSET 0.000000 5.730043 0.104720
						CHANNELS 3 Xrotation Yrotation Zrotation
						JOINT Neck_virtual
						{
							OFFSET 0.000000 0.000000 0.000000
							CHANNELS 3 Xrotation Yrotation Zrotation
							JOINT Neck
							{
								OFFSET 0.000000 10.314075 0.188496
								CHANNELS 3 Xrotation Yrotation Zrotation
								JOINT Head
								{
									OFFSET 0.000000 7.643700 -2.377400
									CHANNELS 3 Xrotation Yrotation Zrotation
									JOINT HeadTop_End
									{
										OFFSET 0.000000 43.788605 -13.619600
										CHANNELS 3 Xrotation Yrotation Zrotation
										End Site
										{
											OFFSET 0 0 0
										}
									}
								}
							}
						}
						JOINT LeftShoulder_virtual
						{
							OFFSET 0.000000 0.000000 0.000000
							CHANNELS 3 Xrotation Yrotation Zrotation
							JOINT LeftShoulder
							{
								OFFSET 2.196100 4.412489 0.087492
								CHANNELS 3 Xrotation Yrotation Zrotation
								JOINT LeftShoulder_split
								{
									OFFSET 2.196100 4.412489 0.087492
									CHANNELS 3 Xrotation Yrotation Zrotation
									JOINT LeftArm
									{
										OFFSET 8.771219 -2.981674 -0.026999
										CHANNELS 3 Xrotation Yrotation Zrotation
										JOINT LeftForeArm
										{
											OFFSET 8.512804 0.000000 -0.000000
											CHANNELS 3 Xrotation Yrotation Zrotation
											JOINT LeftHand
											{
												OFFSET 18.484802 0.000000 -0.000000
												CHANNELS 3 Xrotation Yrotation Zrotation
												End Site
												{
													OFFSET 0 0 0
												}
											}
										}
									}
								}
							}
						}
						JOINT RightShoulder_virtual
						{
							OFFSET 0.000000 0.000000 0.000000
							CHANNELS 3 Xrotation Yrotation Zrotation
							JOINT RightShoulder
							{
								OFFSET -2.196100 4.412496 0.070690
								CHANNELS 3 Xrotation Yrotation Zrotation
								JOINT RightShoulder_split
								{
									OFFSET -2.196100 4.412496 0.070690
									CHANNELS 3 Xrotation Yrotation Zrotation
									JOINT RightArm
									{
										OFFSET -8.771282 -2.981682 -0.094208
										CHANNELS 3 Xrotation Yrotation Zrotation
										JOINT RightForeArm
										{
											OFFSET -8.494598 0.000000 0.000000
											CHANNELS 3 Xrotation Yrotation Zrotation
											JOINT RightHand
											{
												OFFSET -18.483803 0.000000 0.000001
												CHANNELS 3 Xrotation Yrotation Zrotation
												End Site
												{
													OFFSET 0 0 0
												}
											}
										}
									}
								}
							}
						}
					}
				}
			}
		}
	}
}
MOTION
Frames: 6
Frame Time: 0.03333333
3.936545 22.753399 23.901302 0.000000 0.000000 0.000000 -16.850184 -49.915572 -10.358218 -47.729089 -10.578191 36.519252 62.886091 -9.213613 5.071104 -8.450084 -8.282143 -38.127117 -2.024254 0.406309 1.576016 0.000000 0.000000 0.000000 -17.933288 -44.697352 -9.567295 -21.461930 1.325605 -48.541441 84.482480 17.663518 -9.583178 -11.274936 -9.504160 23.394163 -15.879128 -2.416148 11.667602 0.000000 0.000000 0.000000 -16.387161 -42.517166 -10.502532 25.602278 3.890410 -10.007524 -0.815124 1.247764 0.404402 1.674110 -0.915365 1.066637 0.000000 0.000000 0.000000 0.808834 0.842115 0.867270 1.232653 14.939224 0.521323 0.946535 21.827941 -5.112237 0.000000 0.000000 0.000000 0.107959 1.025437 0.870892 0.839961 1.689720 -8.412537 -0.026302 -2.283726 2.069719 -60.055975 5.283673 -44.127007 -175.561885 -67.270294 -173.910304 0.000000 0.000000 0.000000 0.135748 0.470171 0.683415 2.668108 12.082351 -4.162472 -8.057432 -1.953304 2.042501 -45.185448 22.610808 86.883551 -174.865342 64.808209 173.003200 0.000000 0.000000 0.000000 
3.597709 23.236992 22.516043 0.000000 0.000000 0.000000 -16.154342 -49.650950 -8.146384 -44.882505 -9.525142 35.889229 55.676823 -9.752138 5.014809 -3.935375 -9.080741 -40.440433 -2.282443 0.443174 1.113731 0.000000 0.000000 0.000000 -18.600207 -44.286335 -7.970659 -19.813639 -0.987135 -48.228584 83.776648 17.626838 -9.892452 -19.926903 -13.241384 27.034929 -13.826926 -0.991070 6.392589 0.000000 0.000000 0.000000 -17.860113 -43.323695 -9.688327 24.382771 4.972455 -9.207534 -0.213580 1.393596 -0.273864 0.836751 -0.222949 1.232634 0.000000 0.000000 0.000000 1.168148 0.945276 0.196216 1.608384 14.569154 0.394057 3.055057 21.349670 -5.539522 0.000000 0.000000 0.000000 0.725621 1.162350 0.180278 0.740538 2.631699 -8.155769 -0.110562 -3.581538 2.221977 -58.660301 5.319891 -45.402252 -176.720749 -65.473647 -174.751210 0.000000 0.000000 0.000000 0.697999 0.572133 -0.053445 2.491921 12.837516 -4.002874 -7.933646 -1.057909 1.258767 -46.570299 20.613557 87.422139 -173.635799 67.442388 172.075538 0.000000 0.000000 0.000000 
3.243015 23.832497 21.075514 0.000000 0.000000 0.000000 -14.206063 -48.358299 -5.211370 -43.379372 -8.563718 34.667192 48.706871 -9.648836 4.893857 -0.195951 -10.050485 -40.394900 -2.627861 0.439189 0.496920 0.000000 0.000000 0.000000 -17.713445 -43.169879 -5.575431 -16.633242 -4.127967 -46.605178 81.762569 16.317431 -9.170520 -30.808951 -17.664517 25.714709 -9.003203 -0.066401 2.752054 0.000000 0.000000 0.000000 -17.892031 -43.453780 -7.903595 23.129228 5.910227 -8.602850 0.346941 1.471791 -0.981608 -0.015997 0.513597 1.366046 0.000000 0.000000 0.000000 1.419899 1.027331 -0.533434 1.947318 13.968797 0.384851 4.365633 20.253872 -5.458759 0.000000 0.000000 0.000000 1.254173 1.260620 -0.515238 0.688550 3.200229 -7.719766 -0.391408 -4.269880 1.802545 -57.972706 4.364537 -46.281075 -178.238171 -63.918515 -176.038017 0.000000 0.000000 0.000000 1.226904 0.654092 -0.829105 2.404161 13.741576 -4.394992 -6.980355 0.362052 0.623396 -47.861970 18.865406 87.375243 -172.995182 68.383902 171.561702 0.000000 0.000000 0.000000 
2.897903 24.428282 19.589724 0.000000 0.000000 0.000000 -12.024378 -46.804728 -2.596657 -43.283127 -7.538825 32.982229 44.413872 -9.166490 5.012464 1.595988 -10.729423 -38.277507 -3.262145 0.370631 -0.015851 0.000000 0.000000 0.000000 -15.985703 -41.864333 -3.227088 -13.541368 -7.333446 -43.845225 78.941510 14.036069 -7.496709 -40.424396 -20.766371 20.942171 -3.993380 0.281646 0.715242 0.000000 0.000000 0.000000 -16.820586 -43.319191 -5.765824 21.886723 6.575146 -8.134182 0.836247 1.444874 -1.505761 -0.222535 1.295850 1.343832 0.000000 0.000000 0.000000 1.532724 1.057100 -1.082680 2.211069 13.305689 0.228023 4.735523 18.902540 -5.141823 0.000000 0.000000 0.000000 1.629390 1.281922 -1.026278 0.683465 3.330780 -7.295952 -0.824720 -4.033247 0.979172 -57.988368 3.279485 -46.536353 -179.896664 -63.191783 -177.590314 0.000000 0.000000 0.000000 1.682995 0.714217 -1.398579 2.422378 14.527573 -5.398878 -5.651629 1.399691 0.491629 -49.403274 17.533319 86.531352 -173.420197 67.187621 171.986895 0.000000 0.000000 0.000000 
2.641076 24.994036 18.098469 0.000000 0.000000 0.000000 -10.039357 -45.773971 -0.790034 -44.414842 -6.271811 31.009865 44.671425 -8.924823 5.397441 0.995737 -11.184501 -35.381982 -4.213437 0.242382 0.179472 0.000000 0.000000 0.000000 -13.870870 -41.045711 -1.497279 -12.157132 -9.717285 -40.571863 75.230278 11.966567 -5.490681 -45.205897 -21.820668 17.405072 -1.651531 0.353352 -0.264766 0.000000 0.000000 0.000000 -14.813647 -43.187440 -3.704095 20.696339 6.942362 -7.699899 1.233175 1.327428 -1.701096 -0.060469 1.641066 1.314442 0.000000 0.000000 0.000000 1.521319 1.033431 -1.277949 2.312578 12.862120 -0.232932 4.239423 17.722919 -4.914619 0.000000 0.000000 0.000000 1.854064 1.208899 -1.215079 0.696681 3.061238 -7.043921 -1.424054 -3.123279 -0.198944 -58.750241 2.636056 -46.165283 178.512690 -63.623499 -179.225134 0.000000 0.000000 0.000000 2.009320 0.721894 -1.586311 2.502037 15.056600 -6.574040 -4.639603 1.615233 0.873916 -51.147076 16.552723 85.137188 -174.658456 64.634586 173.176769 0.000000 0.000000 0.000000 
2.488080 25.565489 16.589689 0.000000 0.000000 0.000000 -8.570928 -45.632863 -0.051551 -45.982609 -4.153076 28.748652 49.292270 -8.728136 5.815618 -2.020093 -11.384986 -32.097610 -5.293283 0.062882 1.132767 0.000000 0.000000 0.000000 -11.506278 -41.278241 -0.608771 -13.192124 -11.281087 -36.976254 70.553423 10.556420 -3.475404 -44.439458 -21.374768 16.975377 -2.460247 0.313772 -0.695811 0.000000 0.000000 0.000000 -12.258008 -43.435663 -2.255731 19.562760 7.033220 -7.251178 1.509390 1.175410 -1.556345 0.436007 1.532568 1.032682 0.000000 0.000000 0.000000 1.441528 0.970260 -1.086874 2.305470 12.694893 -1.015212 3.123925 16.954814 -4.962329 0.000000 0.000000 0.000000 1.947972 1.079531 -1.071843 0.718196 2.455109 -6.989869 -2.008544 -1.952559 -1.272173 -60.162362 2.572509 -45.439302 177.128826 -64.919924 179.200108 0.000000 0.000000 0.000000 2.199245 0.694566 -1.367400 2.616252 15.267944 -7.601359 -3.957222 0.936889 1.463251 -52.747860 16.063891 83.682071 -175.929841 62.175676 174.413115 0.000000 0.000000 0.000000 
